<svg width="7" height="8" viewBox="0 0 7 8" fill="none" xmlns="http://www.w3.org/2000/svg">
<path d="M5.67191 1.03871C5.0814 0.448199 4.2805 0.116455 3.44539 0.116455C2.61029 0.116455 1.80939 0.448199 1.21888 1.03871C0.628375 1.62921 0.296631 2.43011 0.296631 3.26522C0.296631 4.10032 0.628375 4.90122 1.21888 5.49173L3.1745 7.45106C3.209 7.48584 3.25004 7.51345 3.29526 7.53229C3.34048 7.55113 3.38898 7.56083 3.43797 7.56083C3.48696 7.56083 3.53546 7.55113 3.58068 7.53229C3.6259 7.51345 3.66695 7.48584 3.70144 7.45106L5.67191 5.47318C6.25995 4.88513 6.5903 4.08756 6.5903 3.25594C6.5903 2.42432 6.25995 1.62676 5.67191 1.03871V1.03871ZM5.14125 4.94252L3.44539 6.64581L1.74953 4.94252C1.4145 4.60718 1.1864 4.18004 1.09408 3.71508C1.00177 3.25013 1.04937 2.76824 1.23087 2.33034C1.41237 1.89243 1.71963 1.51817 2.1138 1.25486C2.50797 0.991543 2.97136 0.851005 3.44539 0.851005C3.91942 0.851005 4.38281 0.991543 4.77698 1.25486C5.17116 1.51817 5.47841 1.89243 5.65992 2.33034C5.84142 2.76824 5.88902 3.25013 5.7967 3.71508C5.70438 4.18004 5.47629 4.60718 5.14125 4.94252V4.94252ZM2.33214 2.12599C2.03257 2.42648 1.86435 2.83349 1.86435 3.2578C1.86435 3.68211 2.03257 4.08911 2.33214 4.38961C2.5547 4.61255 2.83815 4.7648 3.14691 4.82727C3.45568 4.88973 3.77601 4.85962 4.06773 4.74071C4.35945 4.6218 4.60956 4.4194 4.78667 4.15888C4.96379 3.89837 5.06004 3.59135 5.06333 3.27635C5.065 3.06602 5.02448 2.85749 4.94417 2.66309C4.86386 2.46869 4.74539 2.29236 4.59576 2.14454C4.44869 1.9941 4.27331 1.87422 4.07974 1.79181C3.88616 1.7094 3.67819 1.66609 3.46781 1.66437C3.25742 1.66264 3.04878 1.70254 2.85387 1.78176C2.65897 1.86099 2.48166 1.97797 2.33214 2.12599V2.12599ZM4.07253 3.86267C3.9319 4.00544 3.74605 4.09493 3.54675 4.11584C3.34744 4.13675 3.14706 4.08778 2.97987 3.9773C2.81267 3.86683 2.68905 3.7017 2.63012 3.51017C2.5712 3.31863 2.58063 3.11257 2.65682 2.92722C2.73301 2.74187 2.87121 2.58874 3.04781 2.49401C3.2244 2.39927 3.42842 2.36883 3.62498 2.40787C3.82153 2.44691 3.99843 2.55302 4.12541 2.70805C4.2524 2.86307 4.32159 3.0574 4.32115 3.2578C4.31576 3.48686 4.21966 3.70441 4.05397 3.86267H4.07253Z" fill="#0A2211"/>
</svg>
