<svg width="20" height="20" viewBox="0 0 20 20" fill="none" xmlns="http://www.w3.org/2000/svg">
<path d="M18.3141 14.4275L16.4166 12.4842C16.0085 12.0962 15.4936 11.8391 14.9382 11.746C14.3829 11.6529 13.8123 11.728 13.3 11.9617L12.4749 11.1367C13.4471 9.83768 13.8911 8.21863 13.7175 6.60544C13.544 4.99225 12.7657 3.50471 11.5394 2.44227C10.3132 1.37983 8.72994 0.821385 7.10848 0.879343C5.48701 0.937302 3.9477 1.60737 2.80042 2.75465C1.65314 3.90193 0.983078 5.44124 0.925119 7.0627C0.867161 8.68416 1.42561 10.2674 2.48805 11.4937C3.55049 12.7199 5.03803 13.4982 6.65122 13.6718C8.2644 13.8453 9.88346 13.4013 11.1825 12.4292L11.9983 13.245C11.7371 13.758 11.6435 14.34 11.7307 14.909C11.8178 15.4781 12.0814 16.0054 12.4841 16.4167L14.4275 18.36C14.9431 18.875 15.642 19.1643 16.3708 19.1643C17.0995 19.1643 17.7985 18.875 18.3141 18.36C18.576 18.1039 18.7842 17.798 18.9262 17.4604C19.0683 17.1227 19.1415 16.7601 19.1415 16.3938C19.1415 16.0274 19.0683 15.6648 18.9262 15.3271C18.7842 14.9895 18.576 14.6836 18.3141 14.4275ZM10.5408 10.5408C9.89933 11.1807 9.08264 11.616 8.19388 11.792C7.30512 11.9679 6.38415 11.8764 5.54734 11.5292C4.71052 11.1819 3.99538 10.5945 3.49227 9.841C2.98916 9.08753 2.72064 8.20184 2.72064 7.29584C2.72064 6.38984 2.98916 5.50416 3.49227 4.75068C3.99538 3.99721 4.71052 3.40974 5.54734 3.0625C6.38415 2.71526 7.30512 2.62382 8.19388 2.79973C9.08264 2.97564 9.89933 3.41101 10.5408 4.05084C10.9676 4.47659 11.3063 4.98237 11.5373 5.5392C11.7684 6.09603 11.8873 6.69297 11.8873 7.29584C11.8873 7.89871 11.7684 8.49565 11.5373 9.05248C11.3063 9.60931 10.9676 10.1151 10.5408 10.5408ZM17.0216 17.0217C16.9364 17.1076 16.835 17.1758 16.7233 17.2223C16.6116 17.2689 16.4918 17.2928 16.3708 17.2928C16.2498 17.2928 16.13 17.2689 16.0183 17.2223C15.9066 17.1758 15.8052 17.1076 15.7199 17.0217L13.7766 15.0783C13.6907 14.9931 13.6225 14.8917 13.576 14.78C13.5294 14.6683 13.5055 14.5485 13.5055 14.4275C13.5055 14.3065 13.5294 14.1867 13.576 14.075C13.6225 13.9633 13.6907 13.8619 13.7766 13.7767C13.8618 13.6908 13.9632 13.6226 14.0749 13.576C14.1866 13.5295 14.3064 13.5055 14.4275 13.5055C14.5485 13.5055 14.6683 13.5295 14.78 13.576C14.8917 13.6226 14.9931 13.6908 15.0783 13.7767L17.0216 15.72C17.1075 15.8052 17.1757 15.9066 17.2223 16.0183C17.2688 16.13 17.2928 16.2498 17.2928 16.3708C17.2928 16.4919 17.2688 16.6117 17.2223 16.7234C17.1757 16.8351 17.1075 16.9365 17.0216 17.0217Z" fill="#606F5C"/>
</svg>
