<svg width="14" height="18" viewBox="0 0 14 18" fill="none" xmlns="http://www.w3.org/2000/svg">
<path d="M12.8334 4.83329H10.3334V3.99996C10.3334 3.1159 9.98219 2.26806 9.35706 1.64294C8.73194 1.01782 7.8841 0.666626 7.00004 0.666626C6.11599 0.666626 5.26814 1.01782 4.64302 1.64294C4.0179 2.26806 3.66671 3.1159 3.66671 3.99996V4.83329H1.16671C0.945694 4.83329 0.733732 4.92109 0.577452 5.07737C0.421172 5.23365 0.333374 5.44561 0.333374 5.66663V14.8333C0.333374 15.4963 0.596766 16.1322 1.06561 16.6011C1.53445 17.0699 2.17033 17.3333 2.83337 17.3333H11.1667C11.8297 17.3333 12.4656 17.0699 12.9345 16.6011C13.4033 16.1322 13.6667 15.4963 13.6667 14.8333V5.66663C13.6667 5.44561 13.5789 5.23365 13.4226 5.07737C13.2664 4.92109 13.0544 4.83329 12.8334 4.83329ZM5.33337 3.99996C5.33337 3.55793 5.50897 3.13401 5.82153 2.82145C6.13409 2.50889 6.55801 2.33329 7.00004 2.33329C7.44207 2.33329 7.86599 2.50889 8.17855 2.82145C8.49111 3.13401 8.66671 3.55793 8.66671 3.99996V4.83329H5.33337V3.99996ZM12 14.8333C12 15.0543 11.9122 15.2663 11.756 15.4225C11.5997 15.5788 11.3877 15.6666 11.1667 15.6666H2.83337C2.61236 15.6666 2.4004 15.5788 2.24412 15.4225C2.08784 15.2663 2.00004 15.0543 2.00004 14.8333V6.49996H3.66671V7.33329C3.66671 7.55431 3.75451 7.76627 3.91079 7.92255C4.06707 8.07883 4.27903 8.16663 4.50004 8.16663C4.72105 8.16663 4.93302 8.07883 5.0893 7.92255C5.24558 7.76627 5.33337 7.55431 5.33337 7.33329V6.49996H8.66671V7.33329C8.66671 7.55431 8.75451 7.76627 8.91079 7.92255C9.06707 8.07883 9.27903 8.16663 9.50004 8.16663C9.72105 8.16663 9.93302 8.07883 10.0893 7.92255C10.2456 7.76627 10.3334 7.55431 10.3334 7.33329V6.49996H12V14.8333Z" fill="#34A853"/>
</svg>
