<svg width="9" height="8" viewBox="0 0 9 8" fill="none" xmlns="http://www.w3.org/2000/svg">
<path d="M2.77553 1.61228C2.66544 1.61228 2.55782 1.64492 2.46629 1.70609C2.37475 1.76725 2.30341 1.85418 2.26128 1.95589C2.21915 2.0576 2.20812 2.16952 2.2296 2.2775C2.25108 2.38547 2.30409 2.48465 2.38194 2.5625C2.45978 2.64035 2.55897 2.69336 2.66694 2.71484C2.77492 2.73632 2.88684 2.72529 2.98855 2.68316C3.09026 2.64103 3.17719 2.56969 3.23835 2.47815C3.29952 2.38661 3.33216 2.279 3.33216 2.1689C3.33216 2.02128 3.27352 1.8797 3.16913 1.77531C3.06474 1.67092 2.92316 1.61228 2.77553 1.61228V1.61228ZM7.82972 3.36009L4.70889 0.235551C4.67421 0.201158 4.63309 0.173948 4.58788 0.155481C4.54267 0.137014 4.49425 0.127654 4.44542 0.127936H1.10565C1.00723 0.127936 0.912845 0.167032 0.843253 0.236624C0.773661 0.306216 0.734564 0.400603 0.734564 0.499021V3.83879C0.734282 3.88763 0.743643 3.93604 0.76211 3.98125C0.780576 4.02646 0.807786 4.06759 0.842179 4.10226L3.96672 7.22309C4.17545 7.43156 4.4584 7.54866 4.75342 7.54866C5.04843 7.54866 5.33138 7.43156 5.54012 7.22309L7.82972 4.95204C8.03819 4.74331 8.15529 4.46036 8.15529 4.16534C8.15529 3.87033 8.03819 3.58738 7.82972 3.37864V3.36009ZM7.30648 4.40655L5.01318 6.69615C4.94365 6.76526 4.8496 6.80405 4.75156 6.80405C4.65353 6.80405 4.55947 6.76526 4.48995 6.69615L1.47673 3.68664V0.870106H4.29327L7.30648 3.88332C7.34088 3.91799 7.36809 3.95912 7.38655 4.00433C7.40502 4.04954 7.41438 4.09795 7.4141 4.14679C7.41369 4.24414 7.37504 4.33743 7.30648 4.40655V4.40655Z" fill="#333333"/>
</svg>
