<svg width="24" height="20" viewBox="0 0 24 20" fill="none" xmlns="http://www.w3.org/2000/svg">
<path d="M23.1424 3.09817C22.3228 3.45174 21.4308 3.70621 20.512 3.80531C21.4659 3.23862 22.1802 2.34335 22.521 1.28746C21.6259 1.81993 20.6453 2.1933 19.6228 2.39103C19.1954 1.93413 18.6785 1.57015 18.1043 1.32176C17.5301 1.07337 16.9109 0.945895 16.2853 0.947277C13.754 0.947277 11.7183 2.99906 11.7183 5.51692C11.7183 5.87049 11.7611 6.22406 11.8308 6.56424C8.04061 6.36603 4.66025 4.55531 2.41293 1.78299C2.00345 2.48241 1.78886 3.27877 1.7915 4.08924C1.7915 5.67495 2.59775 7.07317 3.82722 7.89549C3.10268 7.86696 2.3951 7.66781 1.76204 7.31424V7.37049C1.76204 9.59103 3.33168 11.4312 5.42365 11.8544C5.03086 11.9564 4.62679 12.0086 4.22097 12.0098C3.92365 12.0098 3.6424 11.9803 3.35847 11.9401C3.93704 13.7508 5.62186 15.066 7.62811 15.1089C6.05847 16.3383 4.0924 17.0616 1.95758 17.0616C1.57454 17.0616 1.22097 17.0482 0.854004 17.0053C2.879 18.3044 5.28168 19.0544 7.86918 19.0544C16.2692 19.0544 20.8656 12.0955 20.8656 6.05531C20.8656 5.8571 20.8656 5.65888 20.8522 5.46067C21.7415 4.80978 22.521 4.00353 23.1424 3.09817Z" fill="#34A853"/>
</svg>
