<svg width="20" height="20" viewBox="0 0 20 20" fill="none" xmlns="http://www.w3.org/2000/svg">
<path d="M9.99996 0.833374C8.22207 0.836752 6.48352 1.35708 4.99609 2.33097C3.50866 3.30486 2.33653 4.69029 1.62249 6.31849C0.908451 7.9467 0.683308 9.74742 0.974488 11.5013C1.26567 13.2552 2.0606 14.8866 3.26246 16.1967C4.12085 17.1272 5.16266 17.8697 6.32224 18.3776C7.48182 18.8855 8.73403 19.1478 9.99996 19.1478C11.2659 19.1478 12.5181 18.8855 13.6777 18.3776C14.8373 17.8697 15.8791 17.1272 16.7375 16.1967C17.9393 14.8866 18.7343 13.2552 19.0254 11.5013C19.3166 9.74742 19.0915 7.9467 18.3774 6.31849C17.6634 4.69029 16.4913 3.30486 15.0038 2.33097C13.5164 1.35708 11.7779 0.836752 9.99996 0.833374ZM9.99996 17.3334C8.10106 17.3305 6.2773 16.5911 4.91246 15.2709C5.32684 14.2621 6.03174 13.3993 6.93761 12.7921C7.84348 12.1849 8.90941 11.8607 9.99996 11.8607C11.0905 11.8607 12.1564 12.1849 13.0623 12.7921C13.9682 13.3993 14.6731 14.2621 15.0875 15.2709C13.7226 16.5911 11.8989 17.3305 9.99996 17.3334ZM8.16663 8.16671C8.16663 7.80411 8.27415 7.44965 8.4756 7.14816C8.67705 6.84667 8.96338 6.61169 9.29838 6.47293C9.63338 6.33417 10.002 6.29786 10.3576 6.3686C10.7133 6.43934 11.0399 6.61395 11.2963 6.87034C11.5527 7.12674 11.7273 7.45341 11.7981 7.80904C11.8688 8.16467 11.8325 8.53329 11.6937 8.86829C11.555 9.20329 11.32 9.48962 11.0185 9.69107C10.717 9.89252 10.3626 10 9.99996 10C9.51373 10 9.04742 9.80688 8.7036 9.46307C8.35979 9.11925 8.16663 8.65294 8.16663 8.16671ZM16.3341 13.6667C15.5151 12.2658 14.2546 11.1761 12.75 10.5684C13.2167 10.0391 13.5208 9.38648 13.6258 8.68869C13.7308 7.99091 13.6322 7.27764 13.3419 6.6345C13.0516 5.99135 12.5818 5.44564 11.989 5.06284C11.3963 4.68005 10.7056 4.47644 9.99996 4.47644C9.29432 4.47644 8.60367 4.68005 8.01088 5.06284C7.41809 5.44564 6.94835 5.99135 6.65803 6.6345C6.3677 7.27764 6.26912 7.99091 6.37412 8.68869C6.47911 9.38648 6.78323 10.0391 7.24996 10.5684C5.74535 11.1761 4.48481 12.2658 3.6658 13.6667C3.01308 12.5549 2.66821 11.2893 2.66663 10C2.66663 8.05512 3.43925 6.18986 4.81451 4.81459C6.18978 3.43932 8.05504 2.66671 9.99996 2.66671C11.9449 2.66671 13.8101 3.43932 15.1854 4.81459C16.5607 6.18986 17.3333 8.05512 17.3333 10C17.3317 11.2893 16.9869 12.5549 16.3341 13.6667Z" fill="#606F5C"/>
</svg>
